<svg width="92" height="44" viewBox="0 0 92 44" fill="none" xmlns="http://www.w3.org/2000/svg">
<path d="M27.2148 2.69531L13.9258 43.4922H9.93359L22.2383 6.35938H8.67578C7.83724 6.35938 7.10807 6.43229 6.48828 6.57812C5.86849 6.6875 5.30339 6.92448 4.79297 7.28906C4.28255 7.65365 3.75391 8.16406 3.20703 8.82031C2.69661 9.47656 2.11328 10.3333 1.45703 11.3906L0.417969 10.8438L4.02734 1.65625H27.2148V2.69531ZM56.582 43H32.2461V42.2344L43.3477 30.4766C45.9727 27.6693 47.9779 24.8802 49.3633 22.1094C50.7852 19.3385 51.4961 16.7318 51.4961 14.2891C51.4961 11.6276 50.694 9.49479 49.0898 7.89062C47.5221 6.25 45.3711 5.42969 42.6367 5.42969C41.543 5.42969 40.5768 5.57552 39.7383 5.86719C38.8997 6.1224 38.1341 6.57812 37.4414 7.23438C36.7487 7.85417 36.0924 8.67448 35.4727 9.69531C34.8529 10.7161 34.2331 11.9922 33.6133 13.5234L32.3008 13.25C32.556 12.1562 32.8112 11.1901 33.0664 10.3516C33.3581 9.51302 33.6497 8.76562 33.9414 8.10938C34.2695 7.45312 34.6159 6.85156 34.9805 6.30469C35.3451 5.75781 35.7826 5.21094 36.293 4.66406C37.4596 3.42448 38.8086 2.47656 40.3398 1.82031C41.9076 1.16406 43.5482 0.835938 45.2617 0.835938C46.9023 0.835938 48.4154 1.1276 49.8008 1.71094C51.2227 2.25781 52.444 3.02344 53.4648 4.00781C54.5221 4.99219 55.3424 6.15885 55.9258 7.50781C56.5456 8.82031 56.8555 10.2422 56.8555 11.7734C56.8555 14.2891 56.1992 16.7682 54.8867 19.2109C53.6107 21.6536 51.6055 24.3516 48.8711 27.3047L38.3711 38.2422H53.2461C53.9388 38.2422 54.5404 38.2057 55.0508 38.1328C55.5612 38.0234 56.0169 37.8229 56.418 37.5312C56.8555 37.2396 57.2747 36.8203 57.6758 36.2734C58.1133 35.7266 58.6237 34.9974 59.207 34.0859L60.0273 34.4688L56.582 43ZM91.0898 32.6094H84.6914V43H79.8789V32.6094H62.3789V28.6172L81.957 0.835938H84.6914V28.6172H91.0898V32.6094ZM79.8242 7.17969L64.8398 28.6172H79.8242V7.17969Z" fill="#3300FF"/>
</svg>
